<svg width="50" height="16" viewBox="0 0 50 16" fill="none" xmlns="http://www.w3.org/2000/svg">
<path d="M25.8588 5.11501C25.8303 7.34388 27.8633 8.5876 29.3947 9.32714C30.9682 10.0858 31.4967 10.5724 31.4904 11.251C31.4787 12.2894 30.2354 12.7477 29.0719 12.7655C27.042 12.7966 25.8617 12.2224 24.9234 11.7881L24.1922 15.1788C25.1336 15.6087 26.8768 15.9835 28.6844 16C32.9275 16 35.7035 13.9244 35.7186 10.7063C35.7352 6.62215 30.0178 6.39609 30.0568 4.57057C30.0703 4.01703 30.6033 3.42633 31.7713 3.27614C32.3494 3.20027 33.9453 3.14221 35.7547 3.96787L36.4648 0.68728C35.4918 0.336188 34.2412 -4.76837e-07 32.6842 -4.76837e-07C28.6904 -4.76837e-07 25.8814 2.10384 25.8588 5.11501ZM43.2887 0.282576C42.5139 0.282576 41.8609 0.730439 41.5695 1.41772L35.5084 15.759H39.7484L40.5922 13.4483H45.7734L46.2629 15.759H50L46.7389 0.282576H43.2887ZM43.8818 4.46335L45.1055 10.2749H41.7543L43.8818 4.46335ZM20.718 0.282769L17.3758 15.7588H21.4162L24.7568 0.282382L20.718 0.282769ZM14.7408 0.282382L10.5354 10.8165L8.83418 1.85978C8.63457 0.859922 7.84629 0.282576 6.9709 0.282576H0.0962891L0 0.731988C1.41133 1.03547 3.01484 1.52494 3.98633 2.04868C4.58086 2.36861 4.75039 2.64828 4.9457 3.40853L8.16777 15.759H12.4375L18.9836 0.282576L14.7408 0.282382Z" fill="url(#paint0_linear_477_2089)"/>
<defs>
<linearGradient id="paint0_linear_477_2089" x1="22.987" y1="16.321" x2="23.4459" y2="-0.111509" gradientUnits="userSpaceOnUse">
<stop stop-color="#222357"/>
<stop offset="1" stop-color="#254AA5"/>
</linearGradient>
</defs>
</svg>
