<svg width="35" height="25" viewBox="0 0 35 25" fill="none" xmlns="http://www.w3.org/2000/svg">
<path d="M6.37038 24.9447V23.2855C6.37038 22.6493 5.94967 22.2346 5.22854 22.2346C4.86804 22.2346 4.47744 22.3452 4.20699 22.7047C3.99677 22.4005 3.69636 22.2346 3.24567 22.2346C2.94512 22.2346 2.64484 22.3175 2.40437 22.6217V22.2899H1.77344V24.9447H2.40437V23.479C2.40437 23.009 2.67482 22.7876 3.09553 22.7876C3.51597 22.7876 3.72647 23.0365 3.72647 23.479V24.9447H4.35741V23.479C4.35741 23.009 4.65768 22.7876 5.04829 22.7876C5.46901 22.7876 5.67923 23.0365 5.67923 23.479V24.9447H6.37038V24.9447ZM15.7141 22.2899H14.6927V21.4879H14.0618V22.2899H13.4909V22.8152H14.0617V24.0321C14.0617 24.6406 14.3321 25 15.0532 25C15.3237 25 15.624 24.9171 15.8344 24.8065L15.6541 24.3087C15.4738 24.4193 15.2636 24.447 15.1133 24.447C14.8129 24.447 14.6927 24.2811 14.6927 24.0044V22.8152H15.7141V22.2899V22.2899ZM21.0622 22.2345C20.7017 22.2345 20.4614 22.4005 20.3111 22.6217V22.2899H19.6802V24.9447H20.3111V23.4514C20.3111 23.009 20.5213 22.76 20.9119 22.76C21.0321 22.76 21.1824 22.7877 21.3025 22.8153L21.4828 22.2623C21.3626 22.2346 21.1824 22.2346 21.0622 22.2346V22.2345ZM12.9802 22.5111C12.6796 22.3175 12.259 22.2346 11.8084 22.2346C11.0874 22.2346 10.6067 22.5664 10.6067 23.0918C10.6067 23.5344 10.9672 23.7832 11.5981 23.8662L11.8985 23.8939C12.2291 23.9491 12.4093 24.0321 12.4093 24.1705C12.4093 24.364 12.169 24.5023 11.7483 24.5023C11.3277 24.5023 10.9972 24.364 10.7868 24.2258L10.4864 24.6682C10.8169 24.8894 11.2676 25 11.7182 25C12.5595 25 13.0403 24.6406 13.0403 24.1427C13.0403 23.6726 12.6496 23.4237 12.0487 23.3408L11.7483 23.3131C11.4778 23.2854 11.2676 23.2302 11.2676 23.0643C11.2676 22.8706 11.4778 22.76 11.8084 22.76C12.169 22.76 12.5295 22.8982 12.7097 22.9812L12.9802 22.5111V22.5111ZM29.7452 22.2346C29.3845 22.2346 29.1442 22.4005 28.9939 22.6217V22.2899H28.363V24.9447H28.9939V23.4514C28.9939 23.009 29.2043 22.76 29.5948 22.76C29.7151 22.76 29.8653 22.7877 29.9855 22.8153L30.1658 22.2623C30.0456 22.2346 29.8653 22.2346 29.7452 22.2346V22.2346ZM21.6931 23.6173C21.6931 24.4193 22.294 25 23.2254 25C23.646 25 23.9464 24.9171 24.2469 24.6959L23.9464 24.2258C23.7061 24.3917 23.4658 24.4746 23.1953 24.4746C22.6846 24.4746 22.3241 24.1427 22.3241 23.6173C22.3241 23.1196 22.6846 22.7876 23.1953 22.76C23.4658 22.76 23.7061 22.8429 23.9464 23.009L24.2469 22.5388C23.9464 22.3175 23.646 22.2346 23.2254 22.2346C22.294 22.2346 21.6931 22.8153 21.6931 23.6173ZM27.5218 23.6173V22.2899H26.8909V22.6217C26.6805 22.3729 26.3801 22.2346 25.9895 22.2346C25.1783 22.2346 24.5474 22.8153 24.5474 23.6173C24.5474 24.4193 25.1783 25 25.9895 25C26.4101 25 26.7107 24.8618 26.8909 24.6129V24.9447H27.5218V23.6173V23.6173ZM25.2083 23.6173C25.2083 23.1472 25.5388 22.76 26.0796 22.76C26.5904 22.76 26.951 23.1196 26.951 23.6173C26.951 24.0874 26.5904 24.4746 26.0796 24.4746C25.5388 24.4468 25.2083 24.0874 25.2083 23.6173V23.6173ZM17.6672 22.2346C16.8259 22.2346 16.2249 22.7876 16.2249 23.6173C16.2249 24.447 16.8257 25 17.6971 25C18.1177 25 18.5384 24.8894 18.869 24.6406L18.5684 24.2258C18.3281 24.3917 18.0277 24.5023 17.7273 24.5023C17.3367 24.5023 16.946 24.3364 16.8559 23.8661H18.9891V23.645C19.0192 22.7876 18.4784 22.2346 17.667 22.2346H17.6672ZM17.6672 22.7323C18.0576 22.7323 18.3282 22.9537 18.3882 23.3685H16.886C16.946 23.009 17.2165 22.7323 17.6672 22.7323ZM33.3204 23.6173V21.239H32.6895V22.6217C32.4791 22.3729 32.1787 22.2346 31.7881 22.2346C30.9769 22.2346 30.346 22.8153 30.346 23.6173C30.346 24.4193 30.9769 25 31.7881 25C32.2088 25 32.5093 24.8618 32.6895 24.6129V24.9447H33.3204V23.6173V23.6173ZM31.0071 23.6173C31.0071 23.1472 31.3374 22.76 31.8783 22.76C32.3891 22.76 32.7496 23.1196 32.7496 23.6173C32.7496 24.0874 32.3891 24.4746 31.8783 24.4746C31.3374 24.4468 31.0071 24.0874 31.0071 23.6173V23.6173ZM9.91554 23.6173V22.2899H9.2846V22.6217C9.07425 22.3729 8.77383 22.2346 8.38323 22.2346C7.57204 22.2346 6.9411 22.8153 6.9411 23.6173C6.9411 24.4193 7.57204 25 8.38323 25C8.80394 25 9.10435 24.8618 9.2846 24.6129V24.9447H9.91554V23.6173V23.6173ZM7.57204 23.6173C7.57204 23.1472 7.90256 22.76 8.44331 22.76C8.95408 22.76 9.31471 23.1196 9.31471 23.6173C9.31471 24.0874 8.95408 24.4746 8.44331 24.4746C7.90256 24.4468 7.57204 24.0874 7.57204 23.6173V23.6173Z" fill="black"/>
<path d="M12.7656 2.12925H22.2297V17.7819H12.7656V2.12925Z" fill="#FF5F00"/>
<path d="M13.37 9.95574C13.37 6.77548 14.9924 3.95463 17.486 2.12937C15.6534 0.801962 13.34 0 10.8163 0C4.83714 0 0 4.45236 0 9.95574C0 15.459 4.83714 19.9115 10.8161 19.9115C13.3399 19.9115 15.6533 19.1095 17.486 17.782C14.9924 15.9844 13.37 13.136 13.37 9.95574Z" fill="#EB001B"/>
<path d="M35.0016 9.95574C35.0016 15.459 30.1645 19.9115 24.1855 19.9115C21.6617 19.9115 19.3484 19.1095 17.5156 17.782C20.0394 15.9568 21.6318 13.136 21.6318 9.95574C21.6318 6.77548 20.0093 3.95463 17.5156 2.12937C19.3482 0.801962 21.6617 0 24.1855 0C30.1645 0 35.0016 4.48008 35.0016 9.95574Z" fill="#F79E1B"/>
</svg>
