<svg width="120" height="107" viewBox="0 0 120 107" fill="none" xmlns="http://www.w3.org/2000/svg">
<path d="M113.333 13.3333H106.667V6.66667C106.667 3 103.667 0 100 0H6.66667C3 0 0 3 0 6.66667V86.6667C0 90.3333 3 93.3333 6.66667 93.3333H13.3333V100C13.3333 103.667 16.3333 106.667 20 106.667H113.333C117 106.667 120 103.667 120 100V20C120 16.3333 117 13.3333 113.333 13.3333ZM13.3333 20V86.6667H6.68L6.66667 86.6533V6.68L6.68 6.66667H99.9867L100 6.68V13.3333H20C16.3333 13.3333 13.3333 16.3333 13.3333 20ZM113.333 99.9867L113.32 100H20.0133L20 99.9867V20.0133L20.0133 20H113.32L113.333 20.0133V99.9867Z" fill="black" fill-opacity="0.5"/>
<path d="M99.9993 36.6668C99.9985 39.3199 98.9437 41.8639 97.0671 43.7393C95.1905 45.6146 92.6457 46.6677 89.9927 46.6668C87.3396 46.6659 84.7956 45.6112 82.9202 43.7346C81.0449 41.8579 79.9918 39.3132 79.9927 36.6602C79.9936 34.0071 81.0483 31.4631 82.9249 29.5877C84.8016 27.7123 87.3463 26.6593 89.9993 26.6602C92.6524 26.661 95.1964 27.7158 97.0718 29.5924C98.9472 31.469 100 34.0138 99.9993 36.6668ZM106.666 93.3335H26.666V80.0002L49.9993 40.0002L76.666 73.3335H83.3327L106.666 53.3335V93.3335Z" fill="black" fill-opacity="0.5"/>
</svg>
